<svg xmlns="http://www.w3.org/2000/svg" viewBox="0 0 64 64"><title>basket_del</title><g id="treeicon-bg"><rect x="4" y="4" width="56.98" height="56" rx="11" ry="11" style="fill:#f2f2f2"/><path d="M50,5A10,10,0,0,1,60,15V49A10,10,0,0,1,50,59H15A10,10,0,0,1,5,49V15A10,10,0,0,1,15,5H50m0-2H15A12,12,0,0,0,3,15V49A12,12,0,0,0,15,61H50A12,12,0,0,0,62,49V15A12,12,0,0,0,50,3Z" style="fill:#666"/></g><g id="basket_Kopie" data-name="basket Kopie"><polyline id="_Pfad_" data-name="&lt;Pfad&gt;" points="6 18.95 13.8 18.95 19.36 44.95" style="fill:none;stroke:#666;stroke-miterlimit:10;stroke-width:3px"/><ellipse id="_Pfad_2" data-name="&lt;Pfad&gt;" cx="20.32" cy="48.64" rx="3.71" ry="4.36" style="fill:none;stroke:#666;stroke-miterlimit:10;stroke-width:3px"/><ellipse id="_Pfad_3" data-name="&lt;Pfad&gt;" cx="38.09" cy="48.64" rx="3.71" ry="4.36" style="fill:none;stroke:#666;stroke-miterlimit:10;stroke-width:3px"/><line id="_Pfad_4" data-name="&lt;Pfad&gt;" x1="23.83" y1="47.24" x2="34.57" y2="47.24" style="fill:none;stroke:#666;stroke-miterlimit:10;stroke-width:3px"/><polyline id="_Pfad_5" data-name="&lt;Pfad&gt;" points="18.37 40.4 38.09 40.4 42.43 24.07 14.88 24.07" style="fill:none;stroke:#666;stroke-miterlimit:10;stroke-width:3px"/><circle cx="44" cy="21" r="14" style="fill:#f15a24;stroke:#424242;stroke-linecap:round;stroke-linejoin:round;stroke-width:2px"/><line x1="40.04" y1="17.04" x2="47.96" y2="24.96" style="fill:none;stroke:#424242;stroke-linecap:round;stroke-linejoin:round;stroke-width:2px"/><line x1="40.04" y1="24.96" x2="47.96" y2="17.04" style="fill:none;stroke:#424242;stroke-linecap:round;stroke-linejoin:round;stroke-width:2px"/></g></svg>