<svg id="folder" xmlns="http://www.w3.org/2000/svg" viewBox="0 0 64 64"><title>folder</title><path d="M57.75,9.67H25.57C24.66,9.67,23.51,7.76,22,6c-1.37-1.6-2.84-2.51-4-2.51H6.43C3.45,3.5,1,5.22,1,8.18V53.39A5.61,5.61,0,0,0,6.43,59H57.75c3,0,4.92-2.62,4.92-5.61V14.45C62.67,11.46,60.74,9.67,57.75,9.67Z" style="fill:#e6e6e6"/><path d="M57.75,9.67H25.57C24.66,9.67,23.51,7.76,22,6c-1.37-1.6-2.84-2.51-4-2.51H6.43C3.45,3.5,1,5.22,1,8.18V53.39A5.61,5.61,0,0,0,6.43,59H57.75c3,0,4.92-2.62,4.92-5.61V14.45C62.67,11.46,60.74,9.67,57.75,9.67ZM6.43,6.58H17.05a3.62,3.62,0,0,1,2.76,1.6c2.33,2.76,3,4.57,5.76,4.57H57.75c1.27,0,1.83.42,1.83,1.7v4.47H4.08V8.18C4.08,6.45,6.07,6.58,6.43,6.58ZM57.75,55.92H6.43a2.52,2.52,0,0,1-2.35-2.53V22h55.5V53.39C59.58,54.55,59.08,55.92,57.75,55.92Z" style="fill:#666"/><polygon points="43.17 22.75 40.93 38.95 38.68 55.16 25.5 44.41 12.33 33.66 27.75 28.2 43.17 22.75" style="fill:red"/></svg>