<svg xmlns="http://www.w3.org/2000/svg" viewBox="0 0 64 64"><title>globus</title><g id="treeicon-bg"><rect x="4" y="4" width="56.98" height="56" rx="11" ry="11" style="fill:#f2f2f2"/><path d="M50,5A10,10,0,0,1,60,15V49A10,10,0,0,1,50,59H15A10,10,0,0,1,5,49V15A10,10,0,0,1,15,5H50m0-2H15A12,12,0,0,0,3,15V49A12,12,0,0,0,15,61H50A12,12,0,0,0,62,49V15A12,12,0,0,0,50,3Z" style="fill:#666"/></g><g id="globe"><path d="M15.44,43.69A36.61,36.61,0,0,1,24,41.13a42.88,42.88,0,0,1-1-7.92H10a21.34,21.34,0,0,0,3.84,11.12Z" style="fill:#666"/><path d="M16.48,46.24l-1,.4a21.94,21.94,0,0,0,14,7.28l-.24-.32a30.69,30.69,0,0,1-4.64-9.75A32.5,32.5,0,0,0,16.48,46.24Z" style="fill:#666"/><path d="M24.55,20.1a30.65,30.65,0,0,1,4.24-9.27l.72-1a22.22,22.22,0,0,0-14.07,7.35l.88.4A34.91,34.91,0,0,0,24.55,20.1Z" style="fill:#666"/><path d="M23.91,22.74A38,38,0,0,1,15.2,20.1l-1.44-.64A22.25,22.25,0,0,0,10,30.57H23A41.25,41.25,0,0,1,23.91,22.74Z" style="fill:#666"/><path d="M48.38,46.88l-.56-.4a35.82,35.82,0,0,0-9-2.71,30.89,30.89,0,0,1-4.63,9.75l-.32.48A22,22,0,0,0,48.38,46.88Z" style="fill:#666"/><path d="M47.9,17.38l.64-.32A22,22,0,0,0,34,9.87l.72,1a33,33,0,0,1,4.23,9.27A35.52,35.52,0,0,0,47.9,17.38Z" style="fill:#666"/><path d="M25.67,30.49H37.74a43.09,43.09,0,0,0-.88-7.35c-1.67.16-3.35.32-5,.32a37.05,37.05,0,0,1-5.2-.32A37.06,37.06,0,0,0,25.67,30.49Z" style="fill:#666"/><path d="M50.22,19.14l-1.12.64a36.71,36.71,0,0,1-9.52,3,41.15,41.15,0,0,1,.88,7.75H54.21A21.94,21.94,0,0,0,50.22,19.14Z" style="fill:#666"/><path d="M49.18,44.17l1,.64a21.64,21.64,0,0,0,4.07-11.52H40.46a42.88,42.88,0,0,1-1,7.92,35.77,35.77,0,0,1,9.52,3Z" style="fill:#666"/><path d="M31.75,11.39l-.8,1a26.78,26.78,0,0,0-3.68,8.08,43.53,43.53,0,0,0,4.56.24,39.15,39.15,0,0,0,4.39-.24,28.31,28.31,0,0,0-3.75-8.16Z" style="fill:#666"/><path d="M31.75,52.4l.32-.4a28.09,28.09,0,0,0,4.07-8.55,38.78,38.78,0,0,0-4.31-.24,40.92,40.92,0,0,0-4.48.24,27,27,0,0,0,4.08,8.47Z" style="fill:#666"/><path d="M31.83,40.49a35.31,35.31,0,0,1,5,.32,38.66,38.66,0,0,0,.88-7.52H25.67a45,45,0,0,0,.88,7.52A39,39,0,0,1,31.83,40.49Z" style="fill:#666"/></g></svg>