<svg xmlns="http://www.w3.org/2000/svg" viewBox="0 0 16 16"><title>globus</title><g id="globus"><g id="globe-2"><polygon points="6.79 3.6 6.79 3.61 6.8 3.6 6.79 3.6" style="fill:#666"/><path d="M8,1a7,7,0,1,0,7,7A7,7,0,0,0,8,1Zm6.39,7c0,.12,0,.24,0,.36A2.15,2.15,0,0,1,14.25,8c0-.1-.17-.44-.17-.44a1.3,1.3,0,0,0-.24-.24c-.1-.05-.17-.17-.34-.26A.68.68,0,0,0,13.12,7c-.15,0-.29-.19-.46-.29s-.2,0-.2,0a1.44,1.44,0,0,1,.2.36c0,.07.21.19.43.14a2.55,2.55,0,0,0,.22.34c.07.07,0,.14-.17.24a.56.56,0,0,0-.19.14,2.42,2.42,0,0,1-.39.24c-.07.05-.36.2-.51.05s0-.21-.09-.31-.56-.84-.8-1.18A1.42,1.42,0,0,0,11,6.35c-.08,0,.16,0,.16,0a2.18,2.18,0,0,0,0-.29.91.91,0,0,1,0-.29l-.31.2c-.07,0-.14-.1-.24-.22a1.1,1.1,0,0,1-.22-.39c0-.12.12-.17.12-.17L10.68,5a2.09,2.09,0,0,1,.43,0l.44,0s.07-.17,0-.24-.31-.2-.41-.17.05-.12.17-.22l-.26,0-.32.15a.55.55,0,0,0-.29.19c-.1.12,0,.29-.06.34a1,1,0,0,1-.24.09,1,1,0,0,1-.3,0c-.25,0-.09.23,0,.31L9.6,5.22l-.15-.34a3.53,3.53,0,0,0-.3-.19l-.39-.22,0,.22L9.06,5h0l.15.19-.32,0V5c-.31-.07-.23-.15-.26-.17l-.24-.17-.36.07c-.07,0-.09.1-.23.15a.46.46,0,0,0-.26.19c0,.07-.21.29-.3.39a.53.53,0,0,1-.35.07,3.78,3.78,0,0,1-.42-.1V5a.83.83,0,0,0,0-.3l.21,0,.36-.08.1-.07.15-.19a.2.2,0,0,1,0-.29c.06-.08.27-.1.36-.17a1.16,1.16,0,0,1,.25-.12s.16-.14.33-.31a1.61,1.61,0,0,1,.27-.12A2.85,2.85,0,0,0,9,3.7a1.52,1.52,0,0,0,.34-.17.89.89,0,0,0,0-.29l-.15-.31a2.26,2.26,0,0,1-.14.21A.81.81,0,0,0,9,3.36s-.34,0-.36-.09-.08-.2-.1-.27-.22-.07-.36,0,0-.26,0-.26.15-.18.24-.18a2,2,0,0,0,.41-.15,3.8,3.8,0,0,1,.51-.13c.12,0,.26.05.34.05H10l.5,0s.44.16.29.26A1.63,1.63,0,0,1,11,2.7c.07.07.25-.06.35-.12A6.41,6.41,0,0,1,14.39,8ZM2.9,4.23c0,.1-.13.12,0,.36s0,.46,0,.46l-.48.34c-.07,0-.27.31-.15.24s.27-.15.15,0-.34.5-.39.62-.29.41-.29.56-.09.43-.07.55a1.12,1.12,0,0,1-.08.43A6.41,6.41,0,0,1,2.85,4.22Zm.77-.92A6.46,6.46,0,0,1,5.71,2a2.45,2.45,0,0,1-.16.2s-.17,0-.49.34a4.41,4.41,0,0,0-.31.33.58.58,0,0,1-.22.24.92.92,0,0,0-.24.27L4,3.51l-.22-.1s-.19.07-.17,0Zm2.89.56-.1-.15.1-.21.23.09V3.17L7,3.05l.19.26.28.32-.19.14-.5.1V3.61ZM9.69,6.13c.06,0,.24.07.24.07a4.11,4.11,0,0,1,.7.2c.1.07.27.12.32.19s.21.29.24.36.14.34.17.44a2,2,0,0,0,.16.45c.08.13.49.66.63.9l.44-.08a1.24,1.24,0,0,1-.1.29,3.75,3.75,0,0,1-.27.36,1.59,1.59,0,0,1-.31.37c-.14.12-.14.24-.22.33a2.76,2.76,0,0,0-.17.32s.05.48.08.57-.17.37-.17.37l-.22.21-.29.39,0,.36-.34.26c-.12.1-.1.17-.19.27a2,2,0,0,1-.57.29l-.63.1v-.46a1.44,1.44,0,0,0-.15-.39c-.07-.09,0-.24-.16-.36a.81.81,0,0,1-.19-.29,1,1,0,0,1,0-.29L8.87,11a.45.45,0,0,0,0-.34,1.24,1.24,0,0,1-.08-.41c0-.07-.19-.19-.26-.26s-.05-.17-.05-.27a2.72,2.72,0,0,1,0-.48c0-.17-.21-.05-.36,0s-.24-.05-.24-.19-.27,0-.43.07a3.31,3.31,0,0,1-.56.17.25.25,0,0,1-.29-.07A2.43,2.43,0,0,0,6.22,9a1.34,1.34,0,0,1-.33-.34A2.48,2.48,0,0,1,5.52,8a2.8,2.8,0,0,1,0-.41,1.51,1.51,0,0,1,0-.39,1.06,1.06,0,0,1,.17-.38,1.31,1.31,0,0,1,.41-.32c.07,0,.24-.19.24-.29s.09-.14.14-.24.22-.34.44-.24a1.38,1.38,0,0,0,.26,0,2.4,2.4,0,0,0,.36-.14,1.32,1.32,0,0,1,.34-.07,1.28,1.28,0,0,0,.26.07l.31,0a3.78,3.78,0,0,1,.1.42c0,.08.08.15.2.2S9.45,6.33,9.69,6.13Zm2.77,4.73a2.63,2.63,0,0,1,0,.36c0,.09-.08.26-.1.36a.8.8,0,0,1-.22.34c-.07.05-.19.19-.26.21s-.12-.16-.1-.26.15-.36.15-.36,0-.15,0-.24.32-.22.32-.22l.19-.36A1.09,1.09,0,0,1,12.46,10.86ZM1.77,9.42a.34.34,0,0,1,.14.09.78.78,0,0,0,.26.17c.12,0,.17.12.32.19s.09,0,.29.24a.74.74,0,0,1,.21.34,1.72,1.72,0,0,0,.17.31c0,.07.19.12.27.17a.56.56,0,0,0,.26.1c.07,0,.29.21.41.24s.12.26.12.26l-.12.34-.1.36.1.29a.51.51,0,0,1-.24.12c-.09,0-.12.06-.22,0A6.46,6.46,0,0,1,1.77,9.42Z" style="fill:#666"/></g></g></svg>