<svg id="kombi-icons" xmlns="http://www.w3.org/2000/svg" viewBox="0 0 64 64"><title>orders_add_user_int</title><polygon id="_Pfad_" data-name="&lt;Pfad&gt;" points="31.86 3 56.41 17.08 56.41 46.92 31.86 61 7.36 46.92 7.36 17.08 31.86 3" style="fill:#ccc;stroke:#666;stroke-miterlimit:10;stroke-width:3px"/><polygon id="_Pfad_2" data-name="&lt;Pfad&gt;" points="31.86 3 56.41 17.08 56.41 46.92 31.86 61 7.36 46.92 7.36 17.08 31.86 3" style="fill:none;stroke:#666;stroke-miterlimit:10;stroke-width:3px"/><polyline id="_Pfad_3" data-name="&lt;Pfad&gt;" points="7.36 17.08 32.25 31.16 57.14 17.08" style="fill:none;stroke:#666;stroke-miterlimit:10;stroke-width:3px"/><line id="_Pfad_4" data-name="&lt;Pfad&gt;" x1="43.23" y1="9.19" x2="19.81" y2="24.12" style="fill:none;stroke:#666;stroke-miterlimit:10;stroke-width:3px"/><line id="_Pfad_5" data-name="&lt;Pfad&gt;" x1="32.25" y1="31.16" x2="32.25" y2="61" style="fill:none;stroke:#666;stroke-miterlimit:10;stroke-width:3px"/><polygon points="29 55 10 44 10 27 29 38 29 55" style="fill:#333"/><path d="M31,14.86A15.13,15.13,0,0,0,15.6,0C7.09,0,.19,6.65.19,14.86A14.56,14.56,0,0,0,5.08,25.69,24,24,0,0,1,1.94,32C5,32,9,31.52,12,29.29a15.57,15.57,0,0,0,3.57.42C24.1,29.71,31,23.06,31,14.86Z" style="fill:#0071bc"/><path d="M48.4,59.75a14.21,14.21,0,0,0,3.34-.41C54.59,61.53,58.3,62,61.17,62a24.08,24.08,0,0,1-2.93-6.2,14.35,14.35,0,1,0-9.84,4Z" style="fill:#c1272d"/></svg>