<svg xmlns="http://www.w3.org/2000/svg" viewBox="0 0 16 16"><title>orders_user</title><g id="table"><polygon id="_Pfad_" data-name="&lt;Pfad&gt;" points="8.37 0.41 14.86 4.13 14.86 12.02 8.37 15.74 1.9 12.02 1.9 4.13 8.37 0.41" style="fill:#ccc;stroke:#666;stroke-miterlimit:10;stroke-width:0.75px"/><polygon id="_Pfad_2" data-name="&lt;Pfad&gt;" points="8.37 0.41 14.86 4.13 14.86 12.02 8.37 15.74 1.9 12.02 1.9 4.13 8.37 0.41" style="fill:none;stroke:#666;stroke-miterlimit:10;stroke-width:0.75px"/><polyline id="_Pfad_3" data-name="&lt;Pfad&gt;" points="1.9 4.13 8.47 7.85 15.05 4.13" style="fill:none;stroke:#666;stroke-miterlimit:10;stroke-width:0.75px"/><line id="_Pfad_4" data-name="&lt;Pfad&gt;" x1="11.38" y1="2.04" x2="5.18" y2="5.99" style="fill:none;stroke:#666;stroke-miterlimit:10;stroke-width:0.75px"/><line id="_Pfad_5" data-name="&lt;Pfad&gt;" x1="8.47" y1="7.85" x2="8.47" y2="15.74" style="fill:none;stroke:#666;stroke-miterlimit:10;stroke-width:0.75px"/><path d="M8.14,3.75A3.82,3.82,0,0,0,4.26,0,3.82,3.82,0,0,0,.37,3.75,3.66,3.66,0,0,0,1.61,6.48a6.2,6.2,0,0,1-.8,1.59,4.37,4.37,0,0,0,2.55-.68,3.82,3.82,0,0,0,.9.1A3.81,3.81,0,0,0,8.14,3.75Z" style="fill:#0071bc"/></g></svg>