<svg id="Ebene_1" data-name="Ebene 1" xmlns="http://www.w3.org/2000/svg" viewBox="0 0 64 64"><title>t3-commerce-icon-graybg</title><rect width="64" height="64" style="fill:#666"/><path d="M49,64l6.46-32,1.82-9L40.93,7.1l-9.61,3.24L.69,20.68,24.86,42.34,49,64Z" transform="translate(0 0)" style="fill:#e20613;fill-rule:evenodd"/><polygon points="58.33 17.98 61.96 0 45.72 5.48 58.33 17.98 58.33 17.98" style="fill:#1d1d1b;fill-rule:evenodd"/><path d="M47.58,47.16A27.21,27.21,0,0,1,44,48a24,24,0,0,1-3.79.31,18.58,18.58,0,0,1-5.15-.65A7.06,7.06,0,0,1,31.34,45a13.66,13.66,0,0,1-2.24-5.55A49,49,0,0,1,28.36,30a36.92,36.92,0,0,1,.71-7.8,14.36,14.36,0,0,1,2.13-5.24,8.29,8.29,0,0,1,3.66-3,13.89,13.89,0,0,1,5.28-.92,24.06,24.06,0,0,1,3.82.34c1.42.23,2.63.46,3.62.69v5.06c-1.26-.27-2.46-.5-3.58-.68a27.73,27.73,0,0,0-4.27-.28,4.73,4.73,0,0,0-2.5.62A4.53,4.53,0,0,0,35.53,21a14.82,14.82,0,0,0-1,4,54.66,54.66,0,0,0-.3,6.33,40.4,40.4,0,0,0,.37,6.16,10.82,10.82,0,0,0,1.08,3.56,3.61,3.61,0,0,0,1.73,1.64,6,6,0,0,0,2.3.41,25,25,0,0,0,4.57-.34c1.2-.23,2.29-.45,3.28-.68Z" transform="translate(0 0)" style="fill:#fff"/></svg>