<svg xmlns="http://www.w3.org/2000/svg" viewBox="0 0 64 64"><title>mod_statistics</title><g id="background_" data-name="background#"><rect width="64" height="64" style="fill:#666"/></g><g id="statistik"><path d="M29.78,34.05,45.26,49.53A21.62,21.62,0,0,1,29.78,56a21.26,21.26,0,0,1-10.93-2.92,21.7,21.7,0,0,1-7.93-7.93A21.26,21.26,0,0,1,8,34.22a21.28,21.28,0,0,1,2.92-10.93,21.59,21.59,0,0,1,7.93-7.92,21.26,21.26,0,0,1,10.93-2.93Zm5.3.17H57A21.57,21.57,0,0,1,50.53,49.7Zm20.11-3.63H33.41V8.81A21.75,21.75,0,0,1,52.26,19.66,21.29,21.29,0,0,1,55.19,30.59Z" transform="translate(0 0)" style="fill:#fcfcfc"/></g></svg>