<svg xmlns="http://www.w3.org/2000/svg" viewBox="0 0 64 64"><title>mod_category</title><g id="background_" data-name="background#"><rect width="64" height="64" style="fill:#666"/></g><g id="category"><path d="M47.8,17.84H39.34C38.86,12,34.76,12,32.5,12s-6.36,0-6.84,5.83H17.2A4.24,4.24,0,0,0,13,22.11V31.7a1.06,1.06,0,0,0,.86,1.07l.7.17V44.72a4,4,0,0,0,3.93,4h28a4,4,0,0,0,3.93-4V32.94c.21-.06.43-.12.7-.17A1.12,1.12,0,0,0,52,31.7V22.11A4.27,4.27,0,0,0,47.8,17.84ZM32.5,14.25c2.91,0,4.42.4,4.69,3.59H27.81C28.08,14.65,29.59,14.25,32.5,14.25ZM15.21,22.11a2,2,0,0,1,2.05-2H47.8a2,2,0,0,1,2.05,2V30.8a76.82,76.82,0,0,1-13.26,1.86V31.2a2.47,2.47,0,0,0-2.47-2.53H30.88a2.51,2.51,0,0,0-2.47,2.53v1.46A77.51,77.51,0,0,1,15.15,30.8V22.11ZM34.44,31.2v5.38a.3.3,0,0,1-.32.28H30.88a.3.3,0,0,1-.32-.28V31.2a.3.3,0,0,1,.32-.28h3.24A.3.3,0,0,1,34.44,31.2ZM48.28,44.72a1.77,1.77,0,0,1-1.77,1.74h-28a1.77,1.77,0,0,1-1.77-1.74V33.38A83.26,83.26,0,0,0,28.46,34.9v1.68a2.48,2.48,0,0,0,2.48,2.53h3.23a2.52,2.52,0,0,0,2.48-2.53V34.9a85.19,85.19,0,0,0,11.74-1.52V44.72Z" style="fill:#fff"/></g></svg>