<svg xmlns="http://www.w3.org/2000/svg" viewBox="0 0 64 64"><title>mod_main</title><g id="background_" data-name="background#"><rect width="64" height="64" style="fill:#666"/></g><g id="Ebene_8" data-name="Ebene 8"><path d="M46.59,58.22,51.8,32.47l1.46-7.26L40.08,12.42,32.34,15,7.69,23.35,27.14,40.79,46.59,58.22Z" transform="translate(0 0)" style="fill:#e20613;fill-rule:evenodd"/><polygon points="54.08 21.18 57 6.71 43.93 11.12 54.08 21.18 54.08 21.18" style="fill:#1d1d1b;fill-rule:evenodd"/><path d="M45.43,44.67a22.63,22.63,0,0,1-2.89.64,20.28,20.28,0,0,1-3,.24A14.83,14.83,0,0,1,35.35,45a5.69,5.69,0,0,1-3-2.09,11.08,11.08,0,0,1-1.8-4.47,38.91,38.91,0,0,1-.6-7.63,29.71,29.71,0,0,1,.57-6.28,11.41,11.41,0,0,1,1.72-4.21A6.53,6.53,0,0,1,35.19,18a11,11,0,0,1,4.25-.75,19,19,0,0,1,3.08.28c1.14.18,2.11.37,2.91.55v4.08c-1-.22-2-.41-2.89-.55a21.63,21.63,0,0,0-3.43-.22,3.79,3.79,0,0,0-2,.49,3.68,3.68,0,0,0-1.37,1.74,12.06,12.06,0,0,0-.79,3.25,44.34,44.34,0,0,0-.24,5.09,32.69,32.69,0,0,0,.3,5,8.65,8.65,0,0,0,.87,2.87,2.88,2.88,0,0,0,1.39,1.32,4.88,4.88,0,0,0,1.85.33,20.6,20.6,0,0,0,3.68-.27c1-.19,1.84-.37,2.64-.56Z" transform="translate(0 0)" style="fill:#fff"/></g></svg>