<svg xmlns="http://www.w3.org/2000/svg" viewBox="0 0 64 64"><title>mod_statistic</title><g id="background_" data-name="background#"><rect width="64" height="64" style="fill:#666"/></g><g id="statistik"><path d="M29.93,49A15.54,15.54,0,0,1,22,46.88,15.94,15.94,0,0,1,16.2,41.1a16,16,0,0,1,0-15.91A15.83,15.83,0,0,1,22,19.42a15.4,15.4,0,0,1,7-2.1V33.43L40.48,45a15.78,15.78,0,0,1-10.55,4Z" style="fill:#666"/><path d="M27.93,18.41V33.84l.59.59L39,44.91a14.28,14.28,0,0,1-3.3,1.93A14.65,14.65,0,0,1,29.93,48a14.36,14.36,0,0,1-7.45-2,14.88,14.88,0,0,1-5.42-5.41,15,15,0,0,1,0-14.91,14.88,14.88,0,0,1,5.42-5.41,14.32,14.32,0,0,1,5.45-1.87m2-2.12a16.45,16.45,0,0,0-8.46,2.26,16.71,16.71,0,0,0-6.13,6.14,17,17,0,0,0,0,16.92,16.76,16.76,0,0,0,6.13,6.13,16.94,16.94,0,0,0,15,.94A16.47,16.47,0,0,0,41.91,45l-12-12V16.29Z" style="fill:#fff"/><path d="M34,33.15H51a16.8,16.8,0,0,1-5,12Z" style="fill:#666;stroke:#fff;stroke-miterlimit:10;stroke-width:2px"/><path d="M33.74,29.34V14.51a15.44,15.44,0,0,1,7,2.1,15.81,15.81,0,0,1,5.77,5.77,15.44,15.44,0,0,1,2.1,7Z" style="fill:#666"/><path d="M34.74,15.61a14.08,14.08,0,0,1,5.45,1.86,15,15,0,0,1,5.42,5.41,14.18,14.18,0,0,1,1.86,5.46H34.74V15.61m-2-2.13V30.34H49.6a16.45,16.45,0,0,0-2.27-8.46,16.71,16.71,0,0,0-6.13-6.14,16.45,16.45,0,0,0-8.46-2.26Z" style="fill:#fff"/></g></svg>