<svg xmlns="http://www.w3.org/2000/svg" viewBox="0 0 64 64"><title>mod_access</title><g id="background_" data-name="background#"><rect width="64" height="64" style="fill:#666"/></g><g id="access"><polyline points="22 -28 72 -28 72 22 22 22 22 -28" style="fill:none"/><path d="M17.28,55A2.28,2.28,0,0,1,15,52.72V27.65a2.28,2.28,0,0,1,2.28-2.28H49.19a2.29,2.29,0,0,1,2.28,2.28V52.72A2.29,2.29,0,0,1,49.19,55Z" style="fill:none;stroke:#fff;stroke-linecap:round;stroke-miterlimit:10;stroke-width:3px"/><path d="M25.26,9.26a11.37,11.37,0,0,0-3.42,8.14v8" style="fill:none;stroke:#fff;stroke-linecap:round;stroke-miterlimit:10;stroke-width:3px"/><path d="M37.67,6.9A11.38,11.38,0,0,0,25.26,9.26" style="fill:none;stroke:#fff;stroke-linecap:round;stroke-miterlimit:10;stroke-width:3px"/><path d="M44.63,25.37v-8a11.4,11.4,0,0,0-7-10.5" style="fill:none;stroke:#fff;stroke-linecap:round;stroke-miterlimit:10;stroke-width:3px"/><path d="M36.65,37.91A3.42,3.42,0,1,0,31,40.44V43.6a2.28,2.28,0,0,0,4.56,0V40.44A3.38,3.38,0,0,0,36.65,37.91Z" style="fill:#fff;stroke:#fff;stroke-miterlimit:10"/></g></svg>