<svg xmlns="http://www.w3.org/2000/svg" viewBox="0 0 64 64"><title>mod_access</title><g id="background_" data-name="background#"><rect width="64" height="64" style="fill:#666"/></g><g id="access"><path d="M19.18,49.25a1.86,1.86,0,0,1-1.86-1.86V27a1.85,1.85,0,0,1,1.86-1.85h26A1.85,1.85,0,0,1,47,27v20.4a1.85,1.85,0,0,1-1.85,1.86Z" style="fill:none;stroke:#fff;stroke-linecap:round;stroke-miterlimit:10;stroke-width:3px"/><path d="M25.67,12a9.23,9.23,0,0,0-2.78,6.62v6.5" style="fill:none;stroke:#fff;stroke-linecap:round;stroke-miterlimit:10;stroke-width:3px"/><path d="M35.77,10.1A9.28,9.28,0,0,0,25.67,12" style="fill:none;stroke:#fff;stroke-linecap:round;stroke-miterlimit:10;stroke-width:3px"/><path d="M41.44,25.14v-6.5a9.28,9.28,0,0,0-5.67-8.54" style="fill:none;stroke:#fff;stroke-linecap:round;stroke-miterlimit:10;stroke-width:3px"/><path d="M34.94,35.34a2.78,2.78,0,1,0-5.56,0,2.75,2.75,0,0,0,.93,2.06V40A1.86,1.86,0,1,0,34,40V37.4A2.78,2.78,0,0,0,34.94,35.34Z" style="fill:#fff;stroke:#fff;stroke-miterlimit:10"/></g></svg>