<svg xmlns="http://www.w3.org/2000/svg" viewBox="0 0 64 64"><title>tx_commerce_article_prices</title><g id="prices"><path d="M32.5,10A22.5,22.5,0,1,0,55,32.5,22.52,22.52,0,0,0,32.5,10Zm0,41.45a19,19,0,1,1,19-19A19,19,0,0,1,32.5,51.45Z" style="fill:#fff"/><path d="M28.94,28.09c0-1.42,2.08-1.67,3.89-1.67a14.58,14.58,0,0,1,6,1.81l.38-3.92A14.67,14.67,0,0,0,33.66,23l.56-4H30.5l.56,4c-4.79.45-6.35,3.23-6.35,5.56,0,5.86,10.93,4.62,10.93,8.23,0,1.35-1.28,1.84-3.54,1.84a9.69,9.69,0,0,1-6.53-2.19L25,40.8a14.78,14.78,0,0,0,6.08,1.39L30.5,46h3.72l-.56-3.89c5.63-.48,6.63-3.47,6.63-5.45C40.29,29.72,28.94,31.46,28.94,28.09Z" style="fill:#666"/></g><g id="product_Kopie" data-name="product Kopie"><path d="M43.55,53.72c-.82,3.09-3.33,5.11-5.62,4.5L13.55,51.76c-2.28-.61-3.47-3.6-2.65-6.7" style="fill:#b3b3b3"/><path d="M14.11,48l25.18,6.67a4.81,4.81,0,0,0,4.33-1.22" style="fill:#b3b3b3"/><path d="M11,44.83A4.77,4.77,0,0,0,14.11,48" style="fill:#b3b3b3"/><path d="M52.22,8,26,1.09c-3.3-.87-6.93,2-8.12,6.5L8.14,44.33c-1.36,5.16.62,10.15,4.42,11.17L36.94,62c3.81,1,8-2.36,9.37-7.51l9.74-36.74C57.23,13.24,55.52,8.91,52.22,8ZM37.93,58.22,13.55,51.76c-2.28-.61-3.47-3.6-2.65-6.7l.06-.23A4.77,4.77,0,0,0,14.11,48l25.18,6.67a4.81,4.81,0,0,0,4.33-1.22l-.07.23C42.73,56.81,40.22,58.83,37.93,58.22Z" style="fill:#e6e6e6"/><path d="M52.22,8,26,1.09c-3.3-.87-6.93,2-8.12,6.5L8.14,44.33c-1.36,5.16.62,10.15,4.42,11.17L36.94,62c3.81,1,8-2.36,9.37-7.51l9.74-36.74C57.23,13.24,55.52,8.91,52.22,8ZM25,4.82l26.22,7c1.78.47,2.7,2.81,2.06,5.21L44.87,48.77c-.75,2.79-3,4.62-5.09,4.07L14.61,46.17c-2.06-.55-3.14-3.26-2.4-6.05L20.64,8.33C21.28,5.92,23.24,4.35,25,4.82Zm12.92,53.4L13.55,51.76c-2.28-.61-3.47-3.6-2.65-6.7l.06-.23A4.77,4.77,0,0,0,14.11,48l25.18,6.67a4.81,4.81,0,0,0,4.33-1.22l-.07.23C42.73,56.81,40.22,58.83,37.93,58.22Z" style="fill:#666"/><ellipse cx="33.09" cy="28.23" rx="11.33" ry="11.55" transform="translate(-2.38 53.41) rotate(-75.83)" style="fill:#fcee21"/><path d="M31.21,23.32c.37-1.38,2.45-1.07,4.19-.6A14.65,14.65,0,0,1,40.7,26l1.39-3.69a14.87,14.87,0,0,0-5-2.75l1.57-3.71-3.58-1-.51,4c-4.74-.81-7,1.46-7.58,3.71-1.52,5.66,9.36,7.3,8.42,10.79-.35,1.31-1.72,1.44-3.9.85a9.64,9.64,0,0,1-5.73-3.81l-1.72,4.11a14.83,14.83,0,0,0,5.51,2.92l-1.54,3.58,3.59,1,.47-3.9c5.56,1,7.31-1.62,7.82-3.53C41.75,27.85,30.34,26.57,31.21,23.32Z" style="fill:#666"/></g></svg>