<svg xmlns="http://www.w3.org/2000/svg" viewBox="0 0 16 16"><title>tx_commerce_products</title><g id="product"><path d="M11.78,13.8a1.41,1.41,0,0,1-1.69,1.06L2.34,12.8a1.41,1.41,0,0,1-.95-1.75" style="fill:#b3b3b3"/><path d="M2.45,11.86l8,2.12a1.61,1.61,0,0,0,1.34-.24" style="fill:#b3b3b3"/><path d="M1.41,11a1.61,1.61,0,0,0,1,.87" style="fill:#b3b3b3"/><path d="M13.74,2.27,5.4.06A2,2,0,0,0,3,1.59L.51,10.81a2.36,2.36,0,0,0,1.58,2.93L9.84,15.8A2.35,2.35,0,0,0,12.66,14l2.45-9.23A2.05,2.05,0,0,0,13.74,2.27ZM10.09,14.86,2.34,12.8a1.41,1.41,0,0,1-.95-1.75l0-.06a1.61,1.61,0,0,0,1,.87l8,2.12a1.61,1.61,0,0,0,1.34-.24l0,.06A1.41,1.41,0,0,1,10.09,14.86Z" style="fill:#e6e6e6"/><path d="M13.74,2.27,5.4.06A2,2,0,0,0,3,1.59L.51,10.81a2.36,2.36,0,0,0,1.58,2.93L9.84,15.8A2.35,2.35,0,0,0,12.66,14l2.45-9.23A2.05,2.05,0,0,0,13.74,2.27ZM5.15,1l8.34,2.21a1.1,1.1,0,0,1,.74,1.37l-2.12,8a1.28,1.28,0,0,1-1.52,1l-8-2.13a1.28,1.28,0,0,1-.85-1.58l2.12-8A1.1,1.1,0,0,1,5.15,1Zm4.94,13.86L2.34,12.8a1.41,1.41,0,0,1-.95-1.75l0-.06a1.61,1.61,0,0,0,1,.87l8,2.12a1.61,1.61,0,0,0,1.34-.24l0,.06A1.41,1.41,0,0,1,10.09,14.86Z" style="fill:#666"/><ellipse cx="8.23" cy="6.82" rx="3.2" ry="3.58" transform="translate(-0.4 13.13) rotate(-75.83)" style="fill:red"/></g></svg>