<svg xmlns="http://www.w3.org/2000/svg" viewBox="0 0 16 16"><title>tx_commerce_moveordermails</title><g id="mail"><path d="M13.25,2.7H2.75A.82.82,0,0,0,2,3.58v8.21a.83.83,0,0,0,.75.88h10.5a.83.83,0,0,0,.75-.88V3.58A.82.82,0,0,0,13.25,2.7ZM2.91,3.28H13.09M2.5,11.67v-8m10.65,8.43H2.85M13.5,3.65v8" style="fill:#ccc"/><path d="M13.25,2.7H2.75A.84.84,0,0,0,2,3.61v8.48a.85.85,0,0,0,.75.91h10.5a.85.85,0,0,0,.75-.91V3.61A.84.84,0,0,0,13.25,2.7Zm-.16.6L8,8.07,2.91,3.3ZM2.5,12V3.69l3.85,3.6Zm.35.42,3.9-4.72,1.1,1a.22.22,0,0,0,.3,0l1.1-1,3.9,4.72ZM13.5,12,9.65,7.29l3.85-3.6Z" style="fill:#666"/></g></svg>