<svg xmlns="http://www.w3.org/2000/svg" viewBox="0 0 64 64"><title>tx_commerce_attributes_free</title><g id="treeicon-bg"><rect x="3" y="4" width="56.98" height="56" rx="11" ry="11" style="fill:#f2f2f2"/><path d="M49,5A10,10,0,0,1,59,15V49A10,10,0,0,1,49,59H14A10,10,0,0,1,4,49V15A10,10,0,0,1,14,5H49m0-2H14A12,12,0,0,0,2,15V49A12,12,0,0,0,14,61H49A12,12,0,0,0,61,49V15A12,12,0,0,0,49,3Z" style="fill:#666"/></g><g id="no_attributes" data-name="no attributes"><g id="icon-145-tag-cord"><path id="tag-cord" d="M22.66,12.36H32L56,36.16a3.56,3.56,0,0,1,0,5L43.13,54a3.58,3.58,0,0,1-5.06,0L14.15,30.15V15.91a3.55,3.55,0,0,1,2.74-3.46,5.92,5.92,0,0,1,.7,1.69,1.81,1.81,0,0,0-1.65,1.79V29.26L39.36,52.69a1.78,1.78,0,0,0,2.51,0l12.8-12.83a1.76,1.76,0,0,0,0-2.5L31.13,14.13H23.07L23,13.51c-.08-.4-.18-.78-.29-1.15ZM24,17.69h0a4.45,4.45,0,1,1-4.46,4.45,4.68,4.68,0,0,1,.07-.84c1,2.28,2.33,3.28,4.26,3.52H24a2.67,2.67,0,0,0,.74-5.24v0A7.23,7.23,0,0,1,24,17.69Zm-2.76-3.84C19.64,6.08,11.26,5,8,10.1c-2.59,4.1,0,11.15,4.34,11.15V19.47c-2.78,0-4.74-5.39-2.82-8.42,2.4-3.8,8.67-3,9.89,3.15C20.89,21.45,22,23,24.88,23V21.25c-1.78,0-2.39-.88-3.69-7.4Z" style="fill:#666"/></g><circle cx="18" cy="47" r="10" style="fill:none;stroke:#666;stroke-linecap:round;stroke-linejoin:round;stroke-width:2px"/><line x1="15.17" y1="44.17" x2="20.83" y2="49.83" style="fill:none;stroke:#666;stroke-linecap:round;stroke-linejoin:round;stroke-width:2px"/><line x1="15.17" y1="49.83" x2="20.83" y2="44.17" style="fill:none;stroke:#666;stroke-linecap:round;stroke-linejoin:round;stroke-width:2px"/></g></svg>