<svg xmlns="http://www.w3.org/2000/svg" viewBox="0 0 16 16"><title>tx_commerce_articles</title><g id="article"><path d="M10.75,13.6c-.21.78-.84,1.29-1.42,1.14L3.17,13.11a1.33,1.33,0,0,1-.67-1.69" style="fill:#b3b3b3"/><path d="M3.32,12.17l6.35,1.68a1.2,1.2,0,0,0,1.1-.3" style="fill:#b3b3b3"/><path d="M2.52,11.36a1.22,1.22,0,0,0,.8.81" style="fill:#b3b3b3"/><path d="M12.94,2.07,6.32.31C5.48.09,4.57.83,4.27,2L1.81,11.23c-.35,1.31.15,2.57,1.11,2.82l6.16,1.63c1,.26,2-.59,2.37-1.89l2.46-9.28A1.91,1.91,0,0,0,12.94,2.07ZM9.33,14.74,3.17,13.11a1.33,1.33,0,0,1-.67-1.69l0-.06a1.22,1.22,0,0,0,.8.81l6.35,1.68a1.2,1.2,0,0,0,1.1-.3l0,0C10.54,14.38,9.91,14.89,9.33,14.74Z" style="fill:#e6e6e6"/><path d="M12.94,2.07,6.32.31C5.48.09,4.57.83,4.27,2L1.81,11.23c-.35,1.31.15,2.57,1.11,2.82l6.16,1.63c1,.26,2-.59,2.37-1.89l2.46-9.28A1.91,1.91,0,0,0,12.94,2.07ZM6.07,1.26,12.69,3a1,1,0,0,1,.52,1.32l-2.13,8c-.19.71-.76,1.17-1.28,1L3.44,11.7a1.19,1.19,0,0,1-.6-1.53L5,2.14C5.13,1.53,5.62,1.14,6.07,1.26ZM9.33,14.74,3.17,13.11a1.33,1.33,0,0,1-.67-1.69l0-.06a1.22,1.22,0,0,0,.8.81l6.35,1.68a1.2,1.2,0,0,0,1.1-.3l0,0C10.54,14.38,9.91,14.89,9.33,14.74Z" style="fill:#666"/><ellipse cx="8.07" cy="7.15" rx="2.7" ry="2.76" transform="translate(-0.84 13.23) rotate(-75.83)" style="fill:#fcee21"/></g></svg>