<svg xmlns="http://www.w3.org/2000/svg" viewBox="0 0 16 16"><title>tx_commerce_trackingcodes</title><g id="tracking_code" data-name="tracking code"><path d="M10.83,6.17l-.57.57A3.2,3.2,0,1,1,7.6,5.83v.81A2.4,2.4,0,1,0,10.4,9a2.43,2.43,0,0,0-.7-1.7l-.57.57A1.6,1.6,0,1,1,7.6,7.46v.85A.79.79,0,0,0,7.2,9,.8.8,0,1,0,8.8,9a.79.79,0,0,0-.4-.69V5H8a4,4,0,1,0,2.83,1.17Z" style="fill:#666"/><path d="M3.75,11.76l-.33.33a.2.2,0,0,1-.15.06.24.24,0,0,1-.15-.06L.07,9a.2.2,0,0,1,0-.3L3.12,5.67a.24.24,0,0,1,.15-.06.2.2,0,0,1,.15.06L3.75,6a.26.26,0,0,1,.07.15.21.21,0,0,1-.07.15L1.17,8.88l2.58,2.58a.21.21,0,0,1,.07.15A.23.23,0,0,1,3.75,11.76Z" style="fill:#666"/><path d="M15.93,9l-3,3.06a.24.24,0,0,1-.15.06.2.2,0,0,1-.15-.06l-.33-.33a.23.23,0,0,1-.07-.15.21.21,0,0,1,.07-.15l2.58-2.58L12.25,6.3a.21.21,0,0,1-.07-.15A.26.26,0,0,1,12.25,6l.33-.33a.2.2,0,0,1,.15-.06.24.24,0,0,1,.15.06l3,3.06a.2.2,0,0,1,0,.3Z" style="fill:#666"/></g></svg>