<svg xmlns="http://www.w3.org/2000/svg" viewBox="0 0 64 64"><title>tx_commerce_salesfigures</title><g id="treeicon-bg"><rect x="4" y="4" width="56.98" height="56" rx="11" ry="11" style="fill:#f2f2f2"/><path d="M50,5A10,10,0,0,1,60,15V49A10,10,0,0,1,50,59H15A10,10,0,0,1,5,49V15A10,10,0,0,1,15,5H50m0-2H15A12,12,0,0,0,3,15V49A12,12,0,0,0,15,61H50A12,12,0,0,0,62,49V15A12,12,0,0,0,50,3Z" style="fill:#666"/></g><g id="statistik"><path d="M29.78,34.05,45.26,49.53A21.62,21.62,0,0,1,29.78,56a21.26,21.26,0,0,1-10.93-2.92,21.7,21.7,0,0,1-7.93-7.93A21.26,21.26,0,0,1,8,34.22a21.28,21.28,0,0,1,2.92-10.93,21.59,21.59,0,0,1,7.93-7.92,21.26,21.26,0,0,1,10.93-2.93Z" style="fill:#666"/><path d="M35.08,34.22H57A21.57,21.57,0,0,1,50.53,49.7Z" style="fill:#999"/><path d="M55.19,30.59H33.41V8.81A21.75,21.75,0,0,1,52.26,19.66,21.29,21.29,0,0,1,55.19,30.59Z" style="fill:#ccc"/></g></svg>