<svg xmlns="http://www.w3.org/2000/svg" viewBox="0 0 64 64"><title>tx_commerce_manufacturer</title><g id="treeicon-bg"><rect x="3" y="4" width="56.98" height="56" rx="11" ry="11" style="fill:#f2f2f2"/><path d="M49,5A10,10,0,0,1,59,15V49A10,10,0,0,1,49,59H14A10,10,0,0,1,4,49V15A10,10,0,0,1,14,5H49m0-2H14A12,12,0,0,0,2,15V49A12,12,0,0,0,14,61H49A12,12,0,0,0,61,49V15A12,12,0,0,0,49,3Z" style="fill:#666"/></g><g id="manufacturer"><path d="M23,53h33.1V50.08H53V29a1.46,1.46,0,0,0-2.4-1.13L38.77,37.68,38.72,29a1.46,1.46,0,0,0-.81-1.3,1.44,1.44,0,0,0-1.52.13l-12,8.92V21A1.46,1.46,0,0,0,23,19.49H15.79a1.46,1.46,0,0,0-1.45,1.29L10.9,50.08h-3V53H23Z" style="fill:#ccc"/><path d="M23,53h33.1V50.08H53V29a1.46,1.46,0,0,0-2.4-1.13L38.77,37.68,38.72,29a1.46,1.46,0,0,0-.81-1.3,1.44,1.44,0,0,0-1.52.13l-12,8.92V21A1.46,1.46,0,0,0,23,19.49H15.79a1.46,1.46,0,0,0-1.45,1.29L10.9,50.08h-3V53H23ZM35.82,31.87l0,8.91a1.48,1.48,0,0,0,.85,1.31,1.46,1.46,0,0,0,1.55-.2l11.85-9.81v18H24.42V40.37ZM17.09,22.41H21.5V50.08H13.84Z" style="fill:#666"/><path d="M18.41,18.36a1.59,1.59,0,0,0,.48.07,1.47,1.47,0,0,0,1.38-1c1.28-3.73,4.94-4.29,7.69-3.64,4.78,1.14,8.7,1.53,11.94-4.67a1.46,1.46,0,0,0-2.59-1.36c-2.12,4.07-3.85,4.34-8.67,3.19-4.26-1-9.34.3-11.13,5.53A1.47,1.47,0,0,0,18.41,18.36Z" style="fill:#666"/></g></svg>