<svg xmlns="http://www.w3.org/2000/svg" viewBox="0 0 16 16"><title>tx_commerce_newclients</title><g id="newclients"><rect x="0.87" y="2" width="2.94" height="13" style="fill:gray"/><rect x="4.65" y="6.82" width="2.94" height="8.18" style="fill:#999"/><rect x="8.5" y="4" width="2.94" height="11" style="fill:gray"/><rect x="12.34" width="2.94" height="15" style="fill:#666"/><path d="M15,12.9a1.58,1.58,0,0,1-.44,1.17,1.62,1.62,0,0,1-1.18.43H8.07a1.62,1.62,0,0,1-1.18-.43,1.58,1.58,0,0,1-.44-1.17c0-.22,0-.43,0-.64a6.39,6.39,0,0,1,.09-.68,4.38,4.38,0,0,1,.16-.67,3.11,3.11,0,0,1,.26-.6,2.16,2.16,0,0,1,.37-.5,1.65,1.65,0,0,1,.52-.33,1.87,1.87,0,0,1,.68-.13.82.82,0,0,1,.26.14l.45.29a3.05,3.05,0,0,0,.65.3,2.62,2.62,0,0,0,1.63,0,3.05,3.05,0,0,0,.65-.3l.45-.29a.82.82,0,0,1,.26-.14,1.87,1.87,0,0,1,.68.13,1.65,1.65,0,0,1,.52.33,2.16,2.16,0,0,1,.37.5,3.11,3.11,0,0,1,.26.6,4.38,4.38,0,0,1,.16.67,6.39,6.39,0,0,1,.09.68C15,12.47,15,12.68,15,12.9ZM13.06,7.37a2.29,2.29,0,0,1-.69,1.68,2.28,2.28,0,0,1-3.29,0,2.29,2.29,0,0,1-.69-1.68A2.28,2.28,0,0,1,9.08,5.7a2.28,2.28,0,0,1,3.29,0A2.28,2.28,0,0,1,13.06,7.37Z" style="fill:#fff;stroke:#4d4d4d;stroke-miterlimit:10;stroke-width:0.5px"/></g></svg>