<svg xmlns="http://www.w3.org/2000/svg" viewBox="0 0 64 64"><title>tx_commerce_moveordermails</title><g id="treeicon-bg"><rect x="4" y="4" width="56.98" height="56" rx="11" ry="11" style="fill:#f2f2f2"/><path d="M50,5A10,10,0,0,1,60,15V49A10,10,0,0,1,50,59H15A10,10,0,0,1,5,49V15A10,10,0,0,1,15,5H50m0-2H15A12,12,0,0,0,3,15V49A12,12,0,0,0,15,61H50A12,12,0,0,0,62,49V15A12,12,0,0,0,50,3Z" style="fill:#666"/></g><g id="mail"><path d="M49.5,14.57h-35A2.75,2.75,0,0,0,12,17.52V45.05a2.75,2.75,0,0,0,2.5,3h35a2.75,2.75,0,0,0,2.5-3V17.52A2.75,2.75,0,0,0,49.5,14.57ZM15,16.53H49M13.67,44.65V17.77M49.16,46H14.84M50.33,17.77V44.65" style="fill:#ccc"/><path d="M49.5,14.57h-35A2.75,2.75,0,0,0,12,17.52V45.05a2.75,2.75,0,0,0,2.5,3h35a2.75,2.75,0,0,0,2.5-3V17.52A2.75,2.75,0,0,0,49.5,14.57Zm-.53,2L32,32,15,16.53ZM13.67,44.65V17.77L26.51,29.48ZM14.84,46l13-15.33L31.48,34a.74.74,0,0,0,1,0l3.67-3.34L49.16,46Zm35.49-1.38L37.49,29.48,50.33,17.77Z" style="fill:#666"/></g></svg>