<svg id="Ebene_1" data-name="Ebene 1" xmlns="http://www.w3.org/2000/svg" viewBox="0 0 16 16"><title>tx_commerce_attributes_free</title><g id="Xmas_Tag" data-name="Xmas Tag"><path id="_Path_" data-name=" Path " d="M1,2.46V6.84a2,2,0,0,0,.59,1.41l6.27,6.27A1.61,1.61,0,0,0,9,15H9a1.65,1.65,0,0,0,1.14-.47l4.39-4.39A1.61,1.61,0,0,0,15,9h0a1.61,1.61,0,0,0-.47-1.14L8.25,1.59A2,2,0,0,0,6.84,1H2.46A2,2,0,0,0,1,2.46Z" style="fill:none;stroke:#666;stroke-linecap:round;stroke-linejoin:round;stroke-width:0.5px"/><ellipse id="_Path_2" data-name=" Path 2" cx="3.68" cy="3.68" rx="1.34" ry="1.34" style="fill:none;stroke:#666;stroke-linecap:round;stroke-linejoin:round;stroke-width:0.5px"/></g><line x1="8.25" y1="5.78" x2="8.15" y2="10.54" style="fill:none;stroke:#666;stroke-linecap:round;stroke-linejoin:round"/><line x1="5.82" y1="8.11" x2="10.58" y2="8.21" style="fill:none;stroke:#666;stroke-linecap:round;stroke-linejoin:round"/></svg>