<svg id="file-types" xmlns="http://www.w3.org/2000/svg" viewBox="0 0 64 64"><title>tx_commerce_attribute_correlationtypes</title><path id="file" d="M59,24,32.77,4.48H5v55H59V24ZM8.09,57.22h0" style="fill:#e6e6e6"/><path id="file-2" data-name="file" d="M59,24,32.77,4.48H5v55H59V24ZM32.77,7.73l20.32,15.1H32.77ZM8.09,57.22V6.78h21.6V25.12H55.91v32.1Z" style="fill:#666"/><g id="Ebene_10" data-name="Ebene 10"><path d="M37.82,55l2.91-14.5.82-4.09-7.37-7.19-4.32,1.46L16.09,35.37,27,45.18,37.82,55Z" style="fill:#e20613;fill-rule:evenodd"/><polygon points="42.01 34.15 43.64 26 36.34 28.48 42.01 34.15 42.01 34.15" style="fill:#1d1d1b;fill-rule:evenodd"/><path d="M37.18,47.37a13,13,0,0,1-1.62.36,11.23,11.23,0,0,1-1.7.14,8.11,8.11,0,0,1-2.32-.3,3.16,3.16,0,0,1-1.67-1.18,6.11,6.11,0,0,1-1-2.51,21.55,21.55,0,0,1-.34-4.3,16.94,16.94,0,0,1,.32-3.53,6.46,6.46,0,0,1,1-2.37,3.69,3.69,0,0,1,1.64-1.34,6.14,6.14,0,0,1,2.38-.42,10.28,10.28,0,0,1,1.72.16c.64.1,1.18.2,1.63.31v2.29c-.57-.12-1.11-.22-1.62-.31a12.64,12.64,0,0,0-1.92-.12,2.07,2.07,0,0,0-1.12.28,2,2,0,0,0-.76,1,6.29,6.29,0,0,0-.44,1.83,22.73,22.73,0,0,0-.14,2.87A17.56,17.56,0,0,0,31.35,43a4.9,4.9,0,0,0,.48,1.61,1.62,1.62,0,0,0,.78.74,2.59,2.59,0,0,0,1,.19,11.59,11.59,0,0,0,2.06-.15l1.48-.31Z" style="fill:#fff"/></g></svg>