<svg xmlns="http://www.w3.org/2000/svg" viewBox="0 0 64 64"><title>tx_commerce_supplier</title><g id="treeicon-bg"><rect x="3" y="4" width="56.98" height="56" rx="11" ry="11" style="fill:#f2f2f2"/><path d="M49,5A10,10,0,0,1,59,15V49A10,10,0,0,1,49,59H14A10,10,0,0,1,4,49V15A10,10,0,0,1,14,5H49m0-2H14A12,12,0,0,0,2,15V49A12,12,0,0,0,14,61H49A12,12,0,0,0,61,49V15A12,12,0,0,0,49,3Z" style="fill:#666"/></g><g id="supplier"><path d="M24.48,41.19H37.85V23.41a3,3,0,0,0-3-2.94h-23A3,3,0,0,0,9,23.41V41.19h3.51" style="fill:none;stroke:#666;stroke-miterlimit:10;stroke-width:2px"/><path d="M51.43,41.19h3.48V35.43a82.46,82.46,0,0,0-3-8.1c-.83-2-1.32-2.94-3-2.94H37.85v16.8h1.58" style="fill:none;stroke:#666;stroke-miterlimit:10;stroke-width:2px"/><line x1="7" y1="41.19" x2="8.97" y2="41.19" style="fill:none;stroke:#666;stroke-miterlimit:10;stroke-width:2px"/><line x1="54.63" y1="41.19" x2="56.6" y2="41.19" style="fill:none;stroke:#666;stroke-miterlimit:10;stroke-width:2px"/><line x1="53.95" y1="32.79" x2="47.07" y2="32.79" style="fill:none;stroke:#666;stroke-miterlimit:10;stroke-width:2px"/><ellipse cx="18.32" cy="41.19" rx="3.69" ry="3.67" style="fill:none;stroke:#666;stroke-miterlimit:10;stroke-width:2px"/><ellipse cx="45.52" cy="41.19" rx="3.69" ry="3.67" style="fill:none;stroke:#666;stroke-miterlimit:10;stroke-width:2px"/></g></svg>