<svg xmlns="http://www.w3.org/2000/svg" viewBox="0 0 16 16"><title>tx_commerce_attributes_list</title><g id="Ebene_17" data-name="Ebene 17"><g id="Xmas_Tag" data-name="Xmas Tag"><path d="M13.6,9.47,9.22,5a1.6,1.6,0,0,0-1.15-.48H4.7a.94.94,0,0,0-.93,1V8.9a1.69,1.69,0,0,0,.46,1.19l4.38,4.49a1.33,1.33,0,0,0,1.91,0h0l3.06-3.15a1.41,1.41,0,0,0,0-2h0Zm-8-2.12a1,1,0,1,1,.93-1A.94.94,0,0,1,5.63,7.35Z" style="fill:#f2f2f2"/><path id="_Path_" data-name=" Path " d="M3.68,5.51V8.83a1.49,1.49,0,0,0,.43,1.06l4.62,4.75a1.17,1.17,0,0,0,.84.36h0a1.16,1.16,0,0,0,.84-.36l3.24-3.32a1.26,1.26,0,0,0,.35-.87h0a1.25,1.25,0,0,0-.35-.86L9,4.85a1.45,1.45,0,0,0-1-.44" style="fill:none;stroke:#666;stroke-miterlimit:10;stroke-width:0.5px"/><path d="M3.54,3.85V7.32A1.71,1.71,0,0,0,4,8.5L8.38,13a1.34,1.34,0,0,0,1.92,0h0l3.07-3.15a1.42,1.42,0,0,0,0-2h0L9,3.38M5.4,5.76a1,1,0,1,1,.93-1A.94.94,0,0,1,5.4,5.76Z" style="fill:#f2f2f2"/><path id="_Path_2" data-name=" Path " d="M3.45,3.93V7.24a1.54,1.54,0,0,0,.43,1.07l4.63,4.75a1.16,1.16,0,0,0,.84.36h0a1.19,1.19,0,0,0,.84-.36l3.24-3.32a1.25,1.25,0,0,0,.34-.87h0A1.24,1.24,0,0,0,13.43,8L8.8,3.27a1.47,1.47,0,0,0-1-.44" style="fill:none;stroke:#666;stroke-miterlimit:10;stroke-width:0.5px"/></g><g id="Xmas_Tag-2" data-name="Xmas Tag"><path d="M12.93,6.08,8.55,1.57a1.63,1.63,0,0,0-1.16-.48H4a1,1,0,0,0-.93,1V5.51A1.69,1.69,0,0,0,3.56,6.7l4.37,4.49a1.34,1.34,0,0,0,1.92,0h0L12.91,8a1.42,1.42,0,0,0,0-2h0ZM5,4A1,1,0,0,1,5,2.05a.93.93,0,0,1,.93,1A.94.94,0,0,1,5,4Z" style="fill:#ccc"/><path id="_Path_3" data-name=" Path " d="M3,2.11V5.42a1.58,1.58,0,0,0,.43,1.07l4.63,4.75a1.19,1.19,0,0,0,.84.35h0a1.22,1.22,0,0,0,.84-.35L13,7.91a1.24,1.24,0,0,0,.34-.86h0A1.21,1.21,0,0,0,13,6.19L8.35,1.44A1.48,1.48,0,0,0,7.3,1H4.08A1.47,1.47,0,0,0,3,2.11Z" style="fill:none;stroke:#666;stroke-miterlimit:10;stroke-width:0.5px"/><ellipse id="_Path_2-2" data-name=" Path 2" cx="4.97" cy="3.03" rx="0.99" ry="1.01" style="fill:none;stroke:#666;stroke-linecap:round;stroke-linejoin:round;stroke-width:0.5px"/></g></g></svg>