<svg id="product_Kopie" data-name="product Kopie" xmlns="http://www.w3.org/2000/svg" viewBox="0 0 64 64"><title>tx_commerce_articles</title><path d="M43.55,53.72c-.82,3.09-3.33,5.11-5.62,4.5L13.55,51.76c-2.28-.61-3.47-3.6-2.65-6.7" style="fill:#b3b3b3"/><path d="M14.11,48l25.18,6.67a4.81,4.81,0,0,0,4.33-1.22" style="fill:#b3b3b3"/><path d="M11,44.83A4.77,4.77,0,0,0,14.11,48" style="fill:#b3b3b3"/><path d="M52.22,8,26,1.09c-3.3-.87-6.93,2-8.12,6.5L8.14,44.33c-1.36,5.16.62,10.15,4.42,11.17L36.94,62c3.81,1,8-2.36,9.37-7.51l9.74-36.74C57.23,13.24,55.52,8.91,52.22,8ZM37.93,58.22,13.55,51.76c-2.28-.61-3.47-3.6-2.65-6.7l.06-.23A4.77,4.77,0,0,0,14.11,48l25.18,6.67a4.81,4.81,0,0,0,4.33-1.22l-.07.23C42.73,56.81,40.22,58.83,37.93,58.22Z" style="fill:#e6e6e6"/><path d="M52.22,8,26,1.09c-3.3-.87-6.93,2-8.12,6.5L8.14,44.33c-1.36,5.16.62,10.15,4.42,11.17L36.94,62c3.81,1,8-2.36,9.37-7.51l9.74-36.74C57.23,13.24,55.52,8.91,52.22,8ZM25,4.82l26.22,7c1.78.47,2.7,2.81,2.06,5.21L44.87,48.77c-.75,2.79-3,4.62-5.09,4.07L14.61,46.17c-2.06-.55-3.14-3.26-2.4-6.05L20.64,8.33C21.28,5.92,23.24,4.35,25,4.82Zm12.92,53.4L13.55,51.76c-2.28-.61-3.47-3.6-2.65-6.7l.06-.23A4.77,4.77,0,0,0,14.11,48l25.18,6.67a4.81,4.81,0,0,0,4.33-1.22l-.07.23C42.73,56.81,40.22,58.83,37.93,58.22Z" style="fill:#666"/><ellipse cx="33.09" cy="28.23" rx="11.33" ry="11.55" transform="translate(-2.38 53.41) rotate(-75.83)" style="fill:#fcee21"/></svg>