<svg xmlns="http://www.w3.org/2000/svg" viewBox="0 0 64 64"><title>tx_commerce_order_articles</title><g id="orders"><polygon id="_Pfad_" data-name="&lt;Pfad&gt;" points="31.86 3 56.41 17.08 56.41 46.92 31.86 61 7.36 46.92 7.36 17.08 31.86 3" style="fill:#ccc;stroke:#666;stroke-miterlimit:10;stroke-width:3px"/><polygon id="_Pfad_2" data-name="&lt;Pfad&gt;" points="31.86 3 56.41 17.08 56.41 46.92 31.86 61 7.36 46.92 7.36 17.08 31.86 3" style="fill:none;stroke:#666;stroke-miterlimit:10;stroke-width:3px"/><polyline id="_Pfad_3" data-name="&lt;Pfad&gt;" points="7.36 17.08 32.25 31.16 57.14 17.08" style="fill:none;stroke:#666;stroke-miterlimit:10;stroke-width:3px"/><line id="_Pfad_4" data-name="&lt;Pfad&gt;" x1="43.23" y1="9.19" x2="19.81" y2="24.12" style="fill:none;stroke:#666;stroke-miterlimit:10;stroke-width:3px"/><line id="_Pfad_5" data-name="&lt;Pfad&gt;" x1="32.25" y1="31.16" x2="32.25" y2="61" style="fill:none;stroke:#666;stroke-miterlimit:10;stroke-width:3px"/></g><g id="order_articles" data-name="order articles"><polygon id="_Pfad_6" data-name="&lt;Pfad&gt;" points="31.86 3 56.41 17.08 56.41 46.92 31.86 61 7.36 46.92 7.36 17.08 31.86 3" style="fill:#ccc;stroke:#666;stroke-miterlimit:10;stroke-width:3px"/><polygon id="_Pfad_7" data-name="&lt;Pfad&gt;" points="31.86 3 56.41 17.08 56.41 46.92 31.86 61 7.36 46.92 7.36 17.08 31.86 3" style="fill:none;stroke:#666;stroke-miterlimit:10;stroke-width:3px"/><polyline id="_Pfad_8" data-name="&lt;Pfad&gt;" points="7.36 17.08 32.25 31.16 57.14 17.08" style="fill:none;stroke:#666;stroke-miterlimit:10;stroke-width:3px"/><line id="_Pfad_9" data-name="&lt;Pfad&gt;" x1="43.23" y1="9.19" x2="19.81" y2="24.12" style="fill:none;stroke:#666;stroke-miterlimit:10;stroke-width:3px"/><line id="_Pfad_10" data-name="&lt;Pfad&gt;" x1="32.25" y1="31.16" x2="32.25" y2="61" style="fill:none;stroke:#666;stroke-miterlimit:10;stroke-width:3px"/><ellipse cx="20" cy="38.5" rx="8" ry="9.5" transform="translate(-11.49 8.66) rotate(-19.1)" style="fill:#fcee21"/><ellipse cx="45" cy="38.5" rx="9.5" ry="8" transform="translate(-6.1 68.43) rotate(-70.9)" style="fill:#fcee21"/></g></svg>