<svg id="product" xmlns="http://www.w3.org/2000/svg" viewBox="0 0 64 64"><title>tx_commerce_products</title><g id="Ebene_31" data-name="Ebene 31"><path d="M48.88,54.79a5.53,5.53,0,0,1-6.61,4.13L12,50.89A5.52,5.52,0,0,1,8.27,44" style="fill:#b3b3b3"/><path d="M12.4,47.2l31.31,8.3a6.36,6.36,0,0,0,5.23-.94" style="fill:#b3b3b3"/><path d="M8.33,43.8a6.35,6.35,0,0,0,4.07,3.4" style="fill:#b3b3b3"/></g><path d="M56.54,9.73,23.93,1.08a8,8,0,0,0-9.54,6L4.83,43.11C3.5,48.17,6.25,53.29,11,54.55l30.32,8c4.74,1.25,9.66-1.84,11-6.89l9.56-36.06A8,8,0,0,0,56.54,9.73ZM42.27,58.92,12,50.89A5.52,5.52,0,0,1,8.27,44l.06-.22a6.35,6.35,0,0,0,4.07,3.4l31.31,8.3a6.36,6.36,0,0,0,5.23-.94l-.06.23A5.53,5.53,0,0,1,42.27,58.92Z" style="fill:#e6e6e6"/><path d="M56.54,9.73,23.93,1.08a8,8,0,0,0-9.54,6L4.83,43.11C3.5,48.17,6.25,53.29,11,54.55l30.32,8c4.74,1.25,9.66-1.84,11-6.89l9.56-36.06A8,8,0,0,0,56.54,9.73ZM23,4.75l32.6,8.64a4.29,4.29,0,0,1,2.87,5.34l-8.27,31.2a5,5,0,0,1-6,3.74l-31.31-8.3a5,5,0,0,1-3.34-6.2L17.82,8A4.3,4.3,0,0,1,23,4.75ZM42.27,58.92,12,50.89A5.52,5.52,0,0,1,8.27,44l.06-.22a6.35,6.35,0,0,0,4.07,3.4l31.31,8.3a6.36,6.36,0,0,0,5.23-.94l-.06.23A5.53,5.53,0,0,1,42.27,58.92Z" style="fill:#666"/><ellipse cx="35" cy="27.5" rx="12.5" ry="14" transform="translate(-0.23 54.7) rotate(-75.83)" style="fill:red"/></svg>