<svg xmlns="http://www.w3.org/2000/svg" viewBox="0 0 16 16"><title>tx_commerce_user_states</title><g id="button_background" data-name="button background"><rect x="1.25" y="1.25" width="13.5" height="13.5" rx="1.75" ry="1.75" style="fill:#f2f2f2"/><path d="M13,1.5A1.5,1.5,0,0,1,14.5,3V13A1.5,1.5,0,0,1,13,14.5H3A1.5,1.5,0,0,1,1.5,13V3A1.5,1.5,0,0,1,3,1.5H13M13,1H3A2,2,0,0,0,1,3V13a2,2,0,0,0,2,2H13a2,2,0,0,0,2-2V3a2,2,0,0,0-2-2Z" style="fill:#666"/><g id="system"><polygon points="12.22 3.44 11.5 8.63 10.78 13.82 6.56 10.38 2.34 6.93 7.28 5.19 12.22 3.44" style="fill:red"/></g></g></svg>