<svg id="Ebene_1" data-name="Ebene 1" xmlns="http://www.w3.org/2000/svg" viewBox="0 0 16 16"><title>tx_commerce_attributes_16</title><path d="M14.46,7.71l-5.94-6A2.21,2.21,0,0,0,7,1.12H2.39A1.27,1.27,0,0,0,1.12,2.38V7a2.24,2.24,0,0,0,.64,1.57l5.93,5.93a1.83,1.83,0,0,0,2.6,0h0l4.16-4.16a1.84,1.84,0,0,0,0-2.59h0ZM3.65,4.91A1.27,1.27,0,1,1,4.91,3.64,1.26,1.26,0,0,1,3.65,4.91Z" style="fill:#ccc"/><g id="Xmas_Tag" data-name="Xmas Tag"><path id="_Path_" data-name=" Path " d="M1,2.46V6.84a2,2,0,0,0,.59,1.41l6.27,6.27A1.61,1.61,0,0,0,9,15H9a1.65,1.65,0,0,0,1.14-.47l4.39-4.39A1.61,1.61,0,0,0,15,9h0a1.61,1.61,0,0,0-.47-1.14L8.25,1.59A2,2,0,0,0,6.84,1H2.46A2,2,0,0,0,1,2.46Z" style="fill:none;stroke:#666;stroke-linecap:round;stroke-linejoin:round;stroke-width:0.5px"/><ellipse id="_Path_2" data-name=" Path 2" cx="3.68" cy="3.68" rx="1.34" ry="1.34" style="fill:none;stroke:#666;stroke-linecap:round;stroke-linejoin:round;stroke-width:0.5px"/></g></svg>