<svg xmlns="http://www.w3.org/2000/svg" viewBox="0 0 64 64"><title>tx_commerce_baskets</title><g id="treeicon-bg"><rect x="4" y="4" width="56.98" height="56" rx="11" ry="11" style="fill:#f2f2f2"/><path d="M50,5A10,10,0,0,1,60,15V49A10,10,0,0,1,50,59H15A10,10,0,0,1,5,49V15A10,10,0,0,1,15,5H50m0-2H15A12,12,0,0,0,3,15V49A12,12,0,0,0,15,61H50A12,12,0,0,0,62,49V15A12,12,0,0,0,50,3Z" style="fill:#666"/></g><g id="basket_Kopie" data-name="basket Kopie"><polyline id="_Pfad_" data-name="&lt;Pfad&gt;" points="10 14.95 17.8 14.95 23.36 40.95" style="fill:none;stroke:#666;stroke-miterlimit:10;stroke-width:3px"/><ellipse id="_Pfad_2" data-name="&lt;Pfad&gt;" cx="24.32" cy="44.64" rx="3.71" ry="4.36" style="fill:none;stroke:#666;stroke-miterlimit:10;stroke-width:3px"/><ellipse id="_Pfad_3" data-name="&lt;Pfad&gt;" cx="42.09" cy="44.64" rx="3.71" ry="4.36" style="fill:none;stroke:#666;stroke-miterlimit:10;stroke-width:3px"/><line id="_Pfad_4" data-name="&lt;Pfad&gt;" x1="27.83" y1="43.24" x2="38.57" y2="43.24" style="fill:none;stroke:#666;stroke-miterlimit:10;stroke-width:3px"/><polyline id="_Pfad_5" data-name="&lt;Pfad&gt;" points="22.37 36.4 42.09 36.4 46.43 20.07 18.88 20.07" style="fill:none;stroke:#666;stroke-miterlimit:10;stroke-width:3px"/><polyline id="_Pfad_6" data-name="&lt;Pfad&gt;" points="10 14.95 17.8 14.95 23.36 40.95" style="fill:none;stroke:#666;stroke-miterlimit:10;stroke-width:3px"/><ellipse id="_Pfad_7" data-name="&lt;Pfad&gt;" cx="24.32" cy="44.64" rx="3.71" ry="4.36" style="fill:none;stroke:#666;stroke-miterlimit:10;stroke-width:3px"/><ellipse id="_Pfad_8" data-name="&lt;Pfad&gt;" cx="42.09" cy="44.64" rx="3.71" ry="4.36" style="fill:none;stroke:#666;stroke-miterlimit:10;stroke-width:3px"/><line id="_Pfad_9" data-name="&lt;Pfad&gt;" x1="27.83" y1="43.24" x2="38.57" y2="43.24" style="fill:none;stroke:#666;stroke-miterlimit:10;stroke-width:3px"/><polyline id="_Pfad_10" data-name="&lt;Pfad&gt;" points="22.37 36.4 42.09 36.4 46.43 20.07" style="fill:none;stroke:#666;stroke-miterlimit:10;stroke-width:3px"/></g></svg>