<svg xmlns="http://www.w3.org/2000/svg" viewBox="0 0 16 16"><title>tx_commerce_baskets</title><g id="basket"><path d="M13.12,10.11l1.63-4.86a.43.43,0,0,0-.05-.45.7.7,0,0,0-.58-.23H4.88L4.63,3.33A.71.71,0,0,0,4,2.72H1.37C1.1,2.72,1,3,1,3.24v.68c0,.24.1.16.38.16H3.57l1.68,7.2a1.73,1.73,0,0,0-.41,1.11A1.55,1.55,0,0,0,6.37,14,1.76,1.76,0,0,0,7.89,12.7h3.27A1.66,1.66,0,0,0,12.68,14a1.55,1.55,0,0,0,1.53-1.54,1.52,1.52,0,0,0-1.52-1.64,1.18,1.18,0,0,0-1.16.52h-4a1.24,1.24,0,0,0-1.09-.61l-.06-.3h6.11C12.94,10.43,13,10.33,13.12,10.11ZM5.78,12.48a.58.58,0,1,1,1.16,0,.58.58,0,0,1-1.16,0Zm6.91.57a.58.58,0,0,1,0-1.15.58.58,0,1,1,0,1.15Z" style="fill:#666"/></g></svg>