<svg xmlns="http://www.w3.org/2000/svg" viewBox="0 0 64 64"><title>tx_commerce_tracking</title><g id="treeicon-bg"><rect x="3" y="4" width="56.98" height="56" rx="11" ry="11" style="fill:#f2f2f2"/><path d="M49,5A10,10,0,0,1,59,15V49A10,10,0,0,1,49,59H14A10,10,0,0,1,4,49V15A10,10,0,0,1,14,5H49m0-2H14A12,12,0,0,0,2,15V49A12,12,0,0,0,14,61H49A12,12,0,0,0,61,49V15A12,12,0,0,0,49,3Z" style="fill:#666"/></g><g id="tracking"><g id="g10414"><g id="g15415"><g id="g15417"><g id="g14600"><path id="path11038" d="M37.47,8.24a.77.77,0,0,0,.24,1.53h0A12.67,12.67,0,0,1,50.66,22.24a.77.77,0,0,0,1.53,0v0a14.23,14.23,0,0,0-14.48-14ZM25.52,10.53a.67.67,0,0,0-.28.19,16.53,16.53,0,0,0-4.43,16.19,16.88,16.88,0,0,0,4.86,8,3.92,3.92,0,0,0,.76,4.24v6.19l-.15,0-.09.05a5.18,5.18,0,0,0-2.43,4h-6a.76.76,0,0,0-.47.24l-3,3a.78.78,0,0,0-.24.57v3.1a.76.76,0,0,0,.76.76h3a.76.76,0,0,0,.76-.76v-.53l2-1.81H37l2,1.81v.53a.76.76,0,0,0,.76.76h3.14a.76.76,0,0,0,.77-.76v-3.1a.78.78,0,0,0-.24-.57l-3.14-3a.77.77,0,0,0-.53-.24h-6a5.18,5.18,0,0,0-2.43-4h0l-.19-.09V39.72a3.61,3.61,0,0,0,1.19-1c.23.07.44.18.67.24a17.5,17.5,0,0,0,16.67-4.43.76.76,0,0,0,0-1.08v0l-9.15-8.9A3.39,3.39,0,0,0,40.81,22a3.44,3.44,0,0,0-2.57-2.39,4.4,4.4,0,0,0-1.62-.09,3.12,3.12,0,0,0-.91.33l-9.43-9.09A.76.76,0,0,0,25.52,10.53Zm.34,1.9L34.71,21l0,0v.05a.76.76,0,0,0,.67.62L37,23.15l1.71,1.66s0,.07.05.1a.79.79,0,0,0,.48.43l.09,0,8.62,8.48a15.84,15.84,0,0,1-14.57,3.57,15.53,15.53,0,0,1-11-10.9A15,15,0,0,1,25.86,12.43Zm11.76,0A.77.77,0,0,0,37.71,14a8.43,8.43,0,0,1,8.62,8.28.76.76,0,1,0,1.52,0v0a10,10,0,0,0-10.14-9.81Zm0,4.24a.76.76,0,0,0,.05,1.52,4,4,0,0,1,4.15,4,.76.76,0,0,0,1.52,0v0a5.6,5.6,0,0,0-5.67-5.57ZM36.9,21a2.86,2.86,0,0,1,1,.09,1.94,1.94,0,0,1,1.43,1.29,1.89,1.89,0,0,1,.05,1L38,22.05Zm-10,15a17.14,17.14,0,0,0,3.81,2.19,2.36,2.36,0,0,1-2.71.24A2.32,2.32,0,0,1,26.9,36ZM28,40.05a4,4,0,0,0,1.62.14v4.62a6.33,6.33,0,0,0-.76-.05,6.3,6.3,0,0,0-.86.1Zm.86,6.24a3.78,3.78,0,0,1,1.76.43,3.68,3.68,0,0,1,1.67,2.66h-7A3.68,3.68,0,0,1,27,46.72,4,4,0,0,1,28.81,46.29ZM18.14,50.91H39.38l2.71,2.52v2H40.47v0a.75.75,0,0,0-.23-.57l-2.48-2.29a.76.76,0,0,0-.52-.19h-17a.78.78,0,0,0-.53.19l-2.47,2.29a.73.73,0,0,0-.24.57v0H15.52v-2Z" style="fill:#666;stroke:#666;stroke-miterlimit:10;stroke-width:0.5px"/></g></g></g></g></g></svg>