<svg id="category_Kopie" data-name="category Kopie" xmlns="http://www.w3.org/2000/svg" viewBox="0 0 64 64"><title>t3-commerce-icons-v2</title><rect x="27.25" y="30.51" width="9.19" height="11.81" rx="2.5" ry="2.5" style="fill:#fff"/><path d="M21.11,11.93H7.68A6.6,6.6,0,0,0,1,18.43V33.07A1.65,1.65,0,0,0,2.37,34.7c.34.08.68.17,1.11.25v18A6.2,6.2,0,0,0,9.73,59h44.5a6.2,6.2,0,0,0,6.25-6.08V35c.34-.08.68-.17,1.11-.25A1.74,1.74,0,0,0,63,33.07V18.43a6.66,6.66,0,0,0-6.68-6.5H42.85m-3.42,0-14.9,0M35.06,32.3v8.21a.48.48,0,0,1-.51.43H29.41a.48.48,0,0,1-.51-.43V32.3a.48.48,0,0,1,.51-.43h5.14A.48.48,0,0,1,35.06,32.3Z" style="fill:#ccc"/><path d="M56.28,11.93H42.85C42.08,3,35.57,3,32,3s-10.1,0-10.87,8.9H7.68A6.6,6.6,0,0,0,1,18.43V33.07A1.65,1.65,0,0,0,2.37,34.7c.34.08.68.17,1.11.25v18A6.2,6.2,0,0,0,9.73,59h44.5a6.2,6.2,0,0,0,6.25-6.08V35c.34-.08.68-.17,1.11-.25A1.74,1.74,0,0,0,63,33.07V18.43A6.66,6.66,0,0,0,56.28,11.93ZM32,6.45c4.62,0,7,.6,7.45,5.48H24.53C25,7.05,27.36,6.45,32,6.45Zm-27.47,12a3.16,3.16,0,0,1,3.25-3.08H56.28a3.17,3.17,0,0,1,3.26,3.08V31.7a125.5,125.5,0,0,1-21.06,2.82V32.3a3.85,3.85,0,0,0-3.93-3.85H29.41a3.9,3.9,0,0,0-3.93,3.85v2.22A126.75,126.75,0,0,1,4.42,31.7V18.43ZM35.06,32.3v8.21a.48.48,0,0,1-.51.43H29.41a.48.48,0,0,1-.51-.43V32.3a.48.48,0,0,1,.51-.43h5.14A.48.48,0,0,1,35.06,32.3Zm22,20.62a2.77,2.77,0,0,1-2.83,2.66H9.73a2.76,2.76,0,0,1-2.82-2.66V35.64A139.52,139.52,0,0,0,25.56,38v2.56a3.86,3.86,0,0,0,3.94,3.86h5.13a3.92,3.92,0,0,0,3.94-3.86V38a143.41,143.41,0,0,0,18.66-2.31V52.92Z" style="fill:#666"/></svg>