<svg xmlns="http://www.w3.org/2000/svg" viewBox="0 0 16 16"><title>tx_commerce_manufacturer</title><g id="Ebene_7" data-name="Ebene 7"><path d="M5.37,15.09H15v-.9h-.88V7.73a.44.44,0,0,0-.24-.4.38.38,0,0,0-.45.06L10,10.4V7.73a.44.44,0,0,0-.24-.4.39.39,0,0,0-.44,0L5.8,10.1V5.27a.44.44,0,0,0-.43-.44H3.29a.42.42,0,0,0-.42.39l-1,9H1v.9H5.37Z" style="fill:#ccc"/><path d="M5.37,15.09H15v-.9h-.88V7.73a.44.44,0,0,0-.24-.4.38.38,0,0,0-.45.06L10,10.4V7.73a.44.44,0,0,0-.24-.4.39.39,0,0,0-.44,0L5.8,10.1V5.27a.44.44,0,0,0-.43-.44H3.29a.42.42,0,0,0-.42.39l-1,9H1v.9H5.37ZM9.11,8.62l0,2.72a.47.47,0,0,0,.24.41.41.41,0,0,0,.45-.06l3.45-3v5.51H5.8v-3ZM3.67,5.72H5V11H5v3.2H2.72Z" style="fill:#666"/><path d="M4.05,4.48l.14,0a.41.41,0,0,0,.4-.3A1.75,1.75,0,0,1,6.83,3.09c1.39.35,2.53.46,3.47-1.44a.46.46,0,0,0-.18-.6.41.41,0,0,0-.57.19C8.93,2.48,8.43,2.57,7,2.22A2.57,2.57,0,0,0,3.79,3.91.45.45,0,0,0,4.05,4.48Z" style="fill:#666"/></g></svg>