<svg xmlns="http://www.w3.org/2000/svg" viewBox="0 0 16 16"><title>tx_commerce_categories</title><g id="categories"><rect x="6.92" y="7.87" width="2.07" height="2.96" rx="1.04" ry="1.04" style="fill:#fff"/><path d="M5.53,3.23h-3A1.56,1.56,0,0,0,1,4.85V8.51a.4.4,0,0,0,.31.41L1.56,9v4.5A1.48,1.48,0,0,0,3,15H13a1.48,1.48,0,0,0,1.41-1.52V9l.25-.06A.41.41,0,0,0,15,8.51V4.85a1.57,1.57,0,0,0-1.5-1.62h-3m-.77,0-3.36,0M8.67,8.32v2.06a.1.1,0,0,1-.11.1H7.4a.1.1,0,0,1-.11-.1V8.32a.11.11,0,0,1,.11-.11H8.56A.11.11,0,0,1,8.67,8.32Z" style="fill:#ccc"/><path d="M13.46,3.23h-3C10.26,1,8.79,1,8,1S5.7,1,5.53,3.23h-3A1.56,1.56,0,0,0,1,4.85V8.51a.4.4,0,0,0,.31.41L1.56,9v4.5A1.48,1.48,0,0,0,3,15H13a1.48,1.48,0,0,0,1.41-1.52V9l.25-.06A.41.41,0,0,0,15,8.51V4.85A1.57,1.57,0,0,0,13.46,3.23ZM8,1.86c1,0,1.58.15,1.68,1.37H6.3C6.4,2,6.94,1.86,8,1.86Zm-6.19,3a.76.76,0,0,1,.73-.77H13.46a.76.76,0,0,1,.73.77V8.17a25.61,25.61,0,0,1-4.74.71V8.32a.92.92,0,0,0-.89-1H7.4a.93.93,0,0,0-.89,1v.56a25.86,25.86,0,0,1-4.74-.71V4.85ZM8.67,8.32v2.06a.1.1,0,0,1-.11.1H7.4a.1.1,0,0,1-.11-.1V8.32a.11.11,0,0,1,.11-.11H8.56A.11.11,0,0,1,8.67,8.32Zm5,5.16a.66.66,0,0,1-.64.66H3a.66.66,0,0,1-.64-.66V9.16a27.34,27.34,0,0,0,4.2.57v.65a.92.92,0,0,0,.89,1H8.58a.93.93,0,0,0,.88-1V9.73a28,28,0,0,0,4.21-.57v4.32Z" style="fill:#666"/></g></svg>