<svg xmlns="http://www.w3.org/2000/svg" viewBox="0 0 64 64"><title>tx_commerce_trackingcodes</title><g id="treeicon-bg"><rect x="3" y="4" width="56.98" height="56" rx="11" ry="11" style="fill:#f2f2f2"/><path d="M49,5A10,10,0,0,1,59,15V49A10,10,0,0,1,49,59H14A10,10,0,0,1,4,49V15A10,10,0,0,1,14,5H49m0-2H14A12,12,0,0,0,2,15V49A12,12,0,0,0,14,61H49A12,12,0,0,0,61,49V15A12,12,0,0,0,49,3Z" style="fill:#666"/></g><g id="trackingcode"><g id="layer1"><g id="g10414"><g id="g15415"><g id="g15417"><g id="g14600"><path id="path11038" d="M24.22,20a.57.57,0,0,0-.47.65.55.55,0,0,0,.64.47h0a9.33,9.33,0,0,1,9.5,9.21.56.56,0,1,0,1.12,0v0A10.47,10.47,0,0,0,24.39,20,.48.48,0,0,0,24.22,20Zm-8.77,1.68a.6.6,0,0,0-.21.14,12.29,12.29,0,0,0-3.25,12,12.53,12.53,0,0,0,3.57,5.87,2.89,2.89,0,0,0,.55,3.12v4.57l-.1,0-.07,0a3.85,3.85,0,0,0-1.78,3H9.76a.53.53,0,0,0-.35.17L7.17,52.73a.59.59,0,0,0-.17.42v2.29a.56.56,0,0,0,.56.56H9.79a.56.56,0,0,0,.56-.56v-.39l1.47-1.33h12l1.47,1.33v.39a.56.56,0,0,0,.56.56h2.3a.56.56,0,0,0,.56-.56V53.15a.55.55,0,0,0-.17-.42l-2.31-2.18a.52.52,0,0,0-.38-.17H21.49a3.85,3.85,0,0,0-1.78-3h0l-.14-.07V43.24a2.77,2.77,0,0,0,.87-.77c.17.05.32.13.49.17a12.74,12.74,0,0,0,12.22-3.27.56.56,0,0,0,0-.79h0L26.42,32a2.45,2.45,0,0,0-1.64-3.62,3.17,3.17,0,0,0-1.19-.07,2.36,2.36,0,0,0-.67.25L16,21.83A.58.58,0,0,0,15.45,21.69Zm.25,1.41,6.49,6.29,0,0v0a.55.55,0,0,0,.49.46L23.83,31l1.26,1.23,0,.07a.61.61,0,0,0,.35.32l.07,0,6.32,6.26a11.56,11.56,0,0,1-10.68,2.63,11.42,11.42,0,0,1-8.1-8A11.1,11.1,0,0,1,15.7,23.1Zm8.62,0a.56.56,0,0,0-.52.6.55.55,0,0,0,.59.52,6.21,6.21,0,0,1,6.32,6.12.56.56,0,0,0,.55.57.55.55,0,0,0,.57-.55v0a7.35,7.35,0,0,0-7.44-7.24Zm0,3.13a.56.56,0,0,0-.54.58.54.54,0,0,0,.57.54,3,3,0,0,1,3,3,.56.56,0,1,0,1.12,0v0a4.12,4.12,0,0,0-4.16-4.11Zm-.56,3.16a2.25,2.25,0,0,1,.73.07,1.45,1.45,0,0,1,1,.95,1.37,1.37,0,0,1,0,.77l-1-1ZM16.46,40.46a12.38,12.38,0,0,0,2.8,1.62,1.71,1.71,0,0,1-2.8-1.62Zm.77,3a3,3,0,0,0,1.19.1V47a5.25,5.25,0,0,0-.56,0,4.5,4.5,0,0,0-.63.07Zm.63,4.6a2.68,2.68,0,0,1,1.29.32,2.71,2.71,0,0,1,1.23,2h-5.1a2.7,2.7,0,0,1,1.22-2A3,3,0,0,1,17.86,48.09ZM10,51.5H25.61l2,1.86v1.52H26.42v0a.56.56,0,0,0-.18-.42l-1.81-1.69a.62.62,0,0,0-.39-.14H11.61a.57.57,0,0,0-.38.14L9.41,54.42a.52.52,0,0,0-.17.42v0H8.12V53.36Z" style="fill:#666;stroke:#666;stroke-miterlimit:10;stroke-width:0.5px"/></g></g></g></g></g><path d="M39.81,21l-.68.68a.43.43,0,0,1-.31.14.45.45,0,0,1-.32-.14l-6.36-6.36A.45.45,0,0,1,32,15a.43.43,0,0,1,.14-.31L38.5,8.32a.44.44,0,0,1,.32-.13.42.42,0,0,1,.31.13l.68.69a.41.41,0,0,1,0,.62L34.45,15l5.36,5.37a.41.41,0,0,1,.14.32A.41.41,0,0,1,39.81,21ZM47.89,6.42l-5.1,17.64a.41.41,0,0,1-.21.27.36.36,0,0,1-.32,0l-.85-.23a.46.46,0,0,1-.26-.21.45.45,0,0,1,0-.34L46.21,6a.41.41,0,0,1,.21-.27.36.36,0,0,1,.32,0l.85.23a.39.39,0,0,1,.26.21A.42.42,0,0,1,47.89,6.42Zm9,8.9L50.5,21.68a.45.45,0,0,1-.32.14.43.43,0,0,1-.31-.14L49.19,21a.41.41,0,0,1-.14-.31.41.41,0,0,1,.14-.32L54.55,15,49.19,9.63a.41.41,0,0,1,0-.62l.68-.69a.42.42,0,0,1,.31-.13.44.44,0,0,1,.32.13l6.36,6.37A.43.43,0,0,1,57,15,.45.45,0,0,1,56.86,15.32Z" style="fill:#666"/></g></svg>