<svg xmlns="http://www.w3.org/2000/svg" viewBox="0 0 64 64"><title>tx_commerce_newclients</title><g id="treeicon-bg"><rect x="4" y="4" width="56.98" height="56" rx="11" ry="11" style="fill:#f2f2f2"/><path d="M50,5A10,10,0,0,1,60,15V49A10,10,0,0,1,50,59H15A10,10,0,0,1,5,49V15A10,10,0,0,1,15,5H50m0-2H15A12,12,0,0,0,3,15V49A12,12,0,0,0,15,61H50A12,12,0,0,0,62,49V15A12,12,0,0,0,50,3Z" style="fill:#666"/></g><g id="statistik_Kopie" data-name="statistik Kopie"><path d="M41.47,43.42,51.05,53a13.35,13.35,0,0,1-9.58,4A13.45,13.45,0,0,1,28,43.53,13.45,13.45,0,0,1,41.47,30.06Z" style="fill:#666"/><path d="M44.75,43.53H58.31a13.33,13.33,0,0,1-1.05,5.24,13.52,13.52,0,0,1-2.95,4.34Z" style="fill:#999"/><path d="M57.19,41.28H43.72V27.81a13.24,13.24,0,0,1,6.76,1.81,13.54,13.54,0,0,1,4.9,4.9A13.24,13.24,0,0,1,57.19,41.28Z" style="fill:#ccc"/><path d="M20.12,24.84A6.8,6.8,0,0,1,13.33,18V14.69a6.79,6.79,0,1,1,13.58,0V18A6.8,6.8,0,0,1,20.12,24.84Zm0-16a5.84,5.84,0,0,0-5.83,5.83V18A5.83,5.83,0,1,0,26,18V14.69A5.84,5.84,0,0,0,20.12,8.86Z" style="fill:#666;stroke:#666;stroke-miterlimit:10"/><path d="M29.29,32H10.85A2.86,2.86,0,0,1,8,29.15v-2.1c0-.93.47-2.18,2.71-2.83l2.76-.77a.49.49,0,0,1,.6.34.48.48,0,0,1-.34.59L11,25.14c-2,.59-2,1.58-2,1.91v2.1A1.89,1.89,0,0,0,10.85,31H29.29a1.89,1.89,0,0,0,1.89-1.89v-2.1c0-.88-.68-1.52-2-1.91l-2.63-.73a.49.49,0,0,1-.33-.6.48.48,0,0,1,.59-.33l2.63.74c2.25.64,2.72,1.89,2.72,2.83v2.1A2.86,2.86,0,0,1,29.29,32Z" style="fill:#666;stroke:#666;stroke-miterlimit:10"/></g></svg>