<svg xmlns="http://www.w3.org/2000/svg" viewBox="0 0 16 16"><title>tx_commerce_supplier</title><g id="Ebene_6" data-name="Ebene 6"><path d="M5.67,11.82a1.11,1.11,0,0,0-.31-.77,1,1,0,0,0-1.46,0,1.11,1.11,0,0,0-.31.77,1.12,1.12,0,0,0,.31.77,1,1,0,0,0,1.46,0A1.12,1.12,0,0,0,5.67,11.82ZM2.56,7.45H5.67V5.27H4.39a.25.25,0,0,0-.18.08L2.63,7a.25.25,0,0,0-.07.19Zm10.37,4.37a1.11,1.11,0,0,0-.31-.77,1,1,0,0,0-.73-.32,1,1,0,0,0-.73.32,1.06,1.06,0,0,0-.31.77,1.08,1.08,0,0,0,.31.77,1,1,0,0,0,.73.32,1,1,0,0,0,.73-.32A1.12,1.12,0,0,0,12.93,11.82ZM15,2.55v8.72a.8.8,0,0,1,0,.23.36.36,0,0,1-.11.16l-.14.09a.35.35,0,0,1-.19.06H14a2.18,2.18,0,0,1-.6,1.54,2,2,0,0,1-2.94,0,2.19,2.19,0,0,1-.61-1.54H6.7a2.18,2.18,0,0,1-.6,1.54,2,2,0,0,1-2.94,0,2.18,2.18,0,0,1-.6-1.54H1.47a.35.35,0,0,1-.19-.06l-.14-.09A.36.36,0,0,1,1,11.5a.8.8,0,0,1,0-.23.54.54,0,0,1,.15-.38.5.5,0,0,1,.37-.16V8s0-.14,0-.3V7.38c0-.06,0-.16,0-.3a1.7,1.7,0,0,1,.06-.31,1.33,1.33,0,0,1,.11-.26,1.2,1.2,0,0,1,.18-.26L3.49,4.57a1.29,1.29,0,0,1,.41-.28,1.23,1.23,0,0,1,.47-.11h1.3V2.55a.56.56,0,0,1,.15-.39A.47.47,0,0,1,6.19,2h8.29a.5.5,0,0,1,.37.16A.56.56,0,0,1,15,2.55Z" style="fill:#666"/></g></svg>